<?xml version="1.0" encoding="UTF-8"?>
<svg id="vector" data-name="vector" fill="white" xmlns="http://www.w3.org/2000/svg" viewBox="0 0 16 16">
  <defs>
    <style>
      .cls-1 {
        isolation: isolate;
        opacity: 1;
      }

      .cls-1, .cls-2 {
        fill-rule: evenodd;
      }
    </style>
  </defs>
  <path d="m1.5,1c-.28,0-.5.22-.5.5v3c0,.28-.22.5-.5.5s-.5-.22-.5-.5V1.5C0,.67.67,0,1.5,0h3c.28,0,.5.22.5.5s-.22.5-.5.5H1.5Zm9.5-.5c0-.28.22-.5.5-.5h3c.83,0,1.5.67,1.5,1.5v3c0,.28-.22.5-.5.5s-.5-.22-.5-.5V1.5c0-.28-.22-.5-.5-.5h-3c-.28,0-.5-.22-.5-.5M.5,11c.28,0,.5.22.5.5v3c0,.28.22.5.5.5h3c.28,0,.5.22.5.5s-.22.5-.5.5H1.5c-.83,0-1.5-.67-1.5-1.5h0v-3c0-.28.22-.5.5-.5m15,0c.28,0,.5.22.5.5v3c0,.83-.67,1.5-1.5,1.5h-3c-.28,0-.5-.22-.5-.5s.22-.5.5-.5h3c.28,0,.5-.22.5-.5v-3c0-.28.22-.5.5-.5"/>
  <g>
    <path class="cls-1" d="m11.5,4.68c1.85.2,2.4,2.31,1.72,4.29-2.4.16-1.76-2.79-1.72-4.29Z"/>
    <path class="cls-1" d="m3.25,8.96c-.68-1.97-.13-4.09,1.72-4.29.03,1.5.68,4.44-1.72,4.29Z"/>
    <path class="cls-2" d="m8.24,12.91c1.42,0,1.6-2.22,2.1-3.76,1.99-6.07-1.86-5.63-2.1-5.66-.24.03-4.09-.41-2.1,5.66.5,1.53.77,3.76,2.1,3.76Z"/>
  </g>
</svg>