<?xml version="1.0" encoding="utf-8"?>
<!-- Generator: Adobe Illustrator 27.2.0, SVG Export Plug-In . SVG Version: 6.00 Build 0)  -->
<svg version="1.1" id="vector" xmlns="http://www.w3.org/2000/svg" xmlns:xlink="http://www.w3.org/1999/xlink" x="0px" y="0px"
	 viewBox="0 0 16 16" enable-background="new 0 0 16 16" xml:space="preserve">
<path fill-rule="evenodd" clip-rule="evenodd" fill="#FFFFFF" d="M9.6,5.9C10.9,6,11.3,7.6,10.8,9C9.1,9.1,9.5,7,9.6,5.9z"/>
<path fill-rule="evenodd" clip-rule="evenodd" fill="#FFFFFF" d="M5.5,9C5,7.6,5.5,6,6.8,5.9C6.8,7,7.3,9.1,5.5,9z"/>
<path fill-rule="evenodd" clip-rule="evenodd" fill="#FFFFFF" d="M8.2,13.3c1.3,0,1.4-2,1.9-3.4c1.8-5.4-1.7-5-1.9-5.1
	C8,4.9,4.6,4.5,6.3,10C6.8,11.3,7,13.3,8.2,13.3z"/>
<path fill-rule="evenodd" clip-rule="evenodd" fill="#FFFFFF" d="M3.7,5.8c0.5-0.6,0.9-0.8,1.4,0.3C5.6,7.3,5.6,6.9,6,6.8
	c2.1-0.4,2.2-2.1,0.3-3.6c-2-1.5-6.5,2.3-3.6,4.9C2.8,8.2,2.9,8.3,3,8.3c1,0.1,2.1-1.5,1-1.5c-1.2,0.8-0.9,0-0.8-0.3"/>
<path fill-rule="evenodd" clip-rule="evenodd" fill="#FFFFFF" d="M12.4,5.8c-0.5-0.6-0.9-0.8-1.4,0.3c-0.5,1.2-0.5,0.8-0.9,0.7
	C8,6.4,7.9,4.7,9.8,3.2c2-1.5,6.5,2.3,3.6,4.9c-0.1,0.1-0.3,0.2-0.4,0.2c-1,0.1-2.1-1.5-1-1.5c1.2,0.8,0.9,0,0.8-0.3"/>
</svg>
