<?xml version="1.0" encoding="utf-8"?>
<!-- Generator: Adobe Illustrator 27.2.0, SVG Export Plug-In . SVG Version: 6.00 Build 0)  -->
<svg version="1.1" id="Слой_1" xmlns="http://www.w3.org/2000/svg" xmlns:xlink="http://www.w3.org/1999/xlink" x="0px" y="0px"
	 viewBox="0 0 800 800" style="enable-background:new 0 0 800 800;" xml:space="preserve">
<style type="text/css">
	.st0{fill:#FFFFFF;stroke:#FFFFFF;stroke-width:66.6667;stroke-linecap:round;stroke-linejoin:round;stroke-miterlimit:133.3333;}
	.st1{fill-rule:evenodd;clip-rule:evenodd;fill:#FFFFFF;stroke:#FFFFFF;stroke-miterlimit:10;}
</style>
<path class="st0" d="M401.1,492.8h270.6C581.5,492.6,491.3,492.6,401.1,492.8C401,492.7,401.1,492.8,401.1,492.8z"/>
<line class="st0" x1="671.6" y1="492.8" x2="549.1" y2="370.2"/>
<line class="st0" x1="671.6" y1="492.8" x2="549.1" y2="615.4"/>
<g>
	<path class="st1" d="M262.2,499.1c26.8,2,35.1,33.5,24.8,61.2C251.8,562.3,260.1,520.9,262.2,499.1z"/>
	<path class="st1" d="M177.5,560.3c-10.3-27.6,0-59.2,26.8-61.2C204.4,520.9,214.7,562.3,177.5,560.3z"/>
	<path class="st1" d="M233.3,645.2c26.8,0,28.9-39.5,39.2-67.1c37.1-106.6-35.1-98.7-39.2-100.6c-4.1,2-74.3-5.9-39.2,102.6
		C204.4,605.7,208.5,645.2,233.3,645.2z"/>
	<path class="st1" d="M140.4,497.2c10.3-11.8,18.6-15.8,28.9,5.9c10.3,23.7,10.3,15.8,18.6,13.8c43.3-7.9,45.4-41.4,6.2-71
		c-41.3-29.6-134.1,45.4-74.3,96.7c2.1,2,4.1,3.9,6.2,3.9c20.6,2,43.3-29.6,20.6-29.6c-24.8,15.8-18.6,0-16.5-5.9"/>
	<path class="st1" d="M319.9,497.2c-10.3-11.8-18.6-15.8-28.9,5.9c-10.3,23.7-10.3,15.8-18.6,13.8c-43.3-7.9-45.4-41.4-6.2-71
		c41.3-29.6,134.1,45.4,74.3,96.7c-2.1,2-6.2,3.9-8.3,3.9c-20.6,2-43.3-29.6-20.6-29.6c24.8,15.8,18.6,0,16.5-5.9"/>
</g>
<path class="st0" d="M557.9,275.3H86.4 M86.4,275.3L209,152.7 M86.4,275.3L209,397.9"/>
</svg>
